<svg xmlns="http://www.w3.org/2000/svg" viewBox="0 0 1200 760" role="img" aria-labelledby="title desc">
  <title id="title">Thach Thuc 2025 recap cover</title>
  <desc id="desc">A geometric contest cover for Chicken+ Thach Thuc 2025 recap part 1.</desc>
  <defs>
    <linearGradient id="bg" x1="0" y1="0" x2="1" y2="1">
      <stop offset="0" stop-color="#14313c" />
      <stop offset="0.48" stop-color="#e63f55" />
      <stop offset="1" stop-color="#f7b43f" />
    </linearGradient>
    <linearGradient id="panel" x1="0" y1="0" x2="0" y2="1">
      <stop offset="0" stop-color="#ffffff" stop-opacity="0.92" />
      <stop offset="1" stop-color="#ffffff" stop-opacity="0.58" />
    </linearGradient>
  </defs>
  <rect width="1200" height="760" fill="url(#bg)" />
  <path d="M0 570C135 526 217 620 360 568c156-57 214-219 380-194 155 23 236 180 460 86v300H0Z" fill="#14313c" opacity="0.28" />
  <g transform="translate(110 92)">
    <rect width="980" height="526" rx="30" fill="url(#panel)" />
    <rect x="34" y="34" width="912" height="458" rx="22" fill="none" stroke="#14313c" stroke-width="4" stroke-dasharray="16 14" opacity="0.55" />
    <text x="70" y="150" fill="#14313c" font-family="Inter, Arial, sans-serif" font-size="86" font-weight="900">THACH THUC</text>
    <text x="70" y="238" fill="#e63f55" font-family="Inter, Arial, sans-serif" font-size="92" font-weight="900">2025</text>
    <text x="74" y="318" fill="#14313c" font-family="Inter, Arial, sans-serif" font-size="42" font-weight="800">CHICKEN+ RECAP</text>
    <text x="74" y="380" fill="#14313c" font-family="Inter, Arial, sans-serif" font-size="30" font-weight="650">Formation / strategy / road to champion</text>
    <g transform="translate(724 126)" fill="none" stroke="#14313c" stroke-width="18" stroke-linecap="round" stroke-linejoin="round" opacity="0.82">
      <path d="M0 142c72-124 144-124 216 0" />
      <path d="M28 98h160" />
      <path d="M68 56h80" />
      <circle cx="108" cy="174" r="58" fill="#f7b43f" stroke="#14313c" />
    </g>
  </g>
</svg>
